<?xml version="1.0" encoding="UTF-8" standalone="no"?>
<!DOCTYPE svg PUBLIC "-//W3C//DTD SVG 1.1//EN" "http://www.w3.org/Graphics/SVG/1.1/DTD/svg11.dtd">
<svg width="100%" height="100%" viewBox="0 0 11811 3320" version="1.1" xmlns="http://www.w3.org/2000/svg" xmlns:xlink="http://www.w3.org/1999/xlink" xml:space="preserve" xmlns:serif="http://www.serif.com/" style="fill-rule:evenodd;clip-rule:evenodd;stroke-linejoin:round;stroke-miterlimit:2;">
    <g transform="matrix(1,0,0,1,0,-0.937398)">
        <g transform="matrix(4.16667,0,0,4.16667,0,0)">
            <path d="M567.79,672.39C567.79,681.032 564.766,750.337 483.984,750.337L351.495,750.337C314.692,750.337 288.395,768.226 288.395,791.083L286.794,791.083L285.088,782.111L285.041,791.083C285.041,768.226 255.636,750.337 218.833,750.337L89.524,750.337C4.976,750.337 6.082,681.032 6.082,672.316L6.48,8.264L567.756,8.264L567.79,672.39Z" style="fill:rgb(255,194,13);fill-rule:nonzero;"/>
        </g>
        <g transform="matrix(4.16667,0,0,4.16667,0,0)">
            <path d="M483.911,750.273C399.368,751.188 352.452,750.273 351.343,750.273C314.539,750.273 288.242,768.162 288.242,791.019L284.888,791.019C284.888,768.162 255.484,750.273 218.68,750.273C181.877,750.273 173.915,751.188 89.372,750.273C-5.429,749.246 5.946,673.19 5.946,673.19C30.1,649.035 56.729,634.444 93.603,634.444C130.83,634.444 158.826,644.291 181.277,661.426C181.277,661.426 217.393,602.796 286.8,602.796C356.059,602.796 392.228,661.26 392.228,661.26C414.642,644.226 442.575,634.444 479.679,634.444C516.552,634.444 543.182,649.035 567.336,673.19C567.336,673.19 578.712,749.246 483.911,750.273Z" style="fill:rgb(0,113,188);fill-rule:nonzero;"/>
        </g>
        <g transform="matrix(4.16667,0,0,4.16667,0,0)">
            <path d="M11.964,12.188L12.064,672.251L12.063,672.595C12.034,693.791 18.747,712.204 30.967,724.44C44.121,737.613 63.823,744.292 89.524,744.292L218.832,744.292C250.248,744.292 276.379,756.652 286.509,774.435C289.941,767.839 295.472,761.921 302.863,757.073C315.43,748.831 332.701,744.292 351.495,744.292L483.984,744.292C559.625,744.292 561.809,679.692 561.809,672.326L561.774,12.188L11.964,12.188ZM294.376,797L279.059,797L279.059,791.019C279.059,771.85 252.042,756.254 218.832,756.254L89.524,756.254C60.531,756.254 37.982,748.394 22.503,732.893C8.023,718.394 0.067,696.973 0.101,672.578L0.101,672.252L0,0.225L573.736,0.225L573.771,672.326C573.771,676.36 573.172,697.501 561.332,717.579C542.483,749.545 508.866,756.254 483.984,756.254L351.495,756.254C318.931,756.254 294.376,771.199 294.376,791.019L294.376,797Z" style="fill:rgb(35,31,32);fill-rule:nonzero;"/>
        </g>
        <g transform="matrix(4.16667,0,0,4.16667,0,0)">
            <path d="M347.876,337.502L319.097,337.502L330.626,594.909L331.202,601.408C331.202,601.408 358.643,609.034 381.846,635.087L347.876,337.502ZM312.447,595.574L312.447,594.302L302.738,337.502L270.861,337.502L261.153,594.302L261.153,595.571C280.351,591.784 292.976,591.867 312.447,595.574ZM179.15,599.311L209.53,337.503L190.807,337.503L123.127,626.484C140.059,629.45 153.986,634.176 168.991,642.855L179.15,599.311ZM404.476,642.747C419.451,634.01 434.518,629.135 450.619,626.408L382.793,337.503L364.07,337.503L394.45,599.311L404.476,642.747ZM225.696,337.502L254.475,337.502L242.946,594.909L242.37,601.408C242.37,601.408 215.143,609.034 191.726,636.087L225.696,337.502Z" style="fill:rgb(35,31,32);fill-rule:nonzero;"/>
        </g>
        <g transform="matrix(4.16667,0,0,4.16667,0,0)">
            <path d="M383.476,328.17L191.546,328.17C172.086,306.265 148.177,269.564 148.177,221.447C148.177,110.166 227.752,68.256 227.752,68.256L228.222,68.531C225.514,74.226 202.638,122.521 202.638,169.677C202.638,264.336 259.743,312.632 259.743,312.632L263.491,312.632C263.491,312.632 223.888,275.903 223.888,189.961C223.888,68.256 311.786,30.585 311.786,30.585C311.784,30.587 312.182,31.037 312.182,31.037C312.182,31.037 294.675,53.664 294.675,89.559C294.675,139.722 325.309,161.231 325.309,225.7C325.309,286.552 298.263,312.839 298.263,312.839L301.362,312.839C301.362,312.839 339.484,285.834 339.484,225.708C339.484,179.345 331.314,165.096 331.314,147.461C331.314,74.652 392.254,68.256 392.254,68.256C392.275,68.349 392.39,68.951 392.382,68.96C369.106,93.262 370.038,118.54 370.038,126.21C370.038,133.938 372.936,150.358 381.629,168.711C402.37,212.497 408.378,221.92 408.378,258.856C408.378,288.504 395.706,312.193 383.476,328.17Z" style="fill:rgb(237,28,36);fill-rule:nonzero;"/>
        </g>
        <g transform="matrix(4.16667,0,0,4.16667,0,0)">
            <path d="M989.916,167.514L1053.85,167.514L1053.85,566.174L989.916,566.174L989.916,384.443L804.633,384.443L804.633,566.174L740.112,566.174L740.112,167.514L804.633,167.514L804.633,331.166L989.916,331.166L989.916,167.514Z" style="fill:rgb(35,31,32);fill-rule:nonzero;"/>
        </g>
        <g transform="matrix(4.16667,0,0,4.16667,0,0)">
            <path d="M1333.96,566.174L1276.54,566.174L1276.54,534.8C1261.15,556.11 1231.55,572.092 1190.71,572.092C1126.77,572.092 1097.18,535.39 1097.18,466.724L1097.18,296.243L1156.37,296.243L1156.37,460.806C1156.37,498.098 1170.58,517.043 1212.02,517.043C1238.06,517.043 1262.33,505.202 1274.76,491.587L1274.76,296.243L1333.96,296.243L1333.96,566.174Z" style="fill:rgb(35,31,32);fill-rule:nonzero;"/>
        </g>
        <g transform="matrix(4.16667,0,0,4.16667,0,0)">
            <path d="M1494.32,517.632C1523.33,517.632 1542.86,505.792 1553.51,492.18L1553.51,370.827C1543.45,358.991 1524.51,345.375 1494.91,345.375C1443.41,345.375 1427.43,380.891 1427.43,430.615C1427.43,479.747 1443.41,517.632 1494.32,517.632ZM1553.51,167.539L1613.3,167.539L1613.3,566.174L1556.48,566.174L1556.48,542.494C1540.49,559.069 1513.85,572.685 1479.52,572.685C1404.94,572.685 1367.05,519.408 1367.05,430.615C1367.05,343.599 1404.94,290.322 1480.11,290.322C1515.63,290.322 1540.49,304.531 1553.51,318.737L1553.51,167.539Z" style="fill:rgb(35,31,32);fill-rule:nonzero;"/>
        </g>
        <g transform="matrix(4.16667,0,0,4.16667,0,0)">
            <path d="M1774.32,517.632C1803.33,517.632 1822.86,505.792 1833.52,492.18L1833.52,370.827C1823.45,358.991 1804.51,345.375 1774.91,345.375C1723.41,345.375 1707.43,380.891 1707.43,430.615C1707.43,479.747 1723.41,517.632 1774.32,517.632ZM1833.52,167.539L1893.3,167.539L1893.3,566.174L1836.48,566.174L1836.48,542.494C1820.49,559.069 1793.85,572.685 1759.52,572.685C1684.94,572.685 1647.05,519.408 1647.05,430.615C1647.05,343.599 1684.94,290.322 1760.11,290.322C1795.63,290.322 1820.49,304.531 1833.52,318.737L1833.52,167.539Z" style="fill:rgb(35,31,32);fill-rule:nonzero;"/>
        </g>
        <g transform="matrix(4.16667,0,0,4.16667,0,0)">
            <path d="M1944.61,296.243L2003.81,296.243L2003.81,566.174L1944.61,566.174L1944.61,296.243ZM1935.14,200.936C1935.14,174.891 1951.72,163.051 1973.62,163.051C1992.56,163.051 2011.5,174.891 2011.5,200.936C2011.5,227.575 1992.56,238.231 1973.62,238.231C1951.72,238.231 1935.14,227.575 1935.14,200.936Z" style="fill:rgb(35,31,32);fill-rule:nonzero;"/>
        </g>
        <g transform="matrix(4.16667,0,0,4.16667,0,0)">
            <path d="M2054.58,296.243L2112,296.243L2112,327.617C2127.39,306.307 2156.99,290.322 2197.83,290.322C2261.77,290.322 2291.36,327.024 2291.36,395.689L2291.36,566.174L2232.17,566.174L2232.17,401.611C2232.17,364.316 2217.96,345.375 2176.52,345.375C2150.48,345.375 2126.21,357.215 2113.78,370.827L2113.78,566.174L2054.58,566.174L2054.58,296.243Z" style="fill:rgb(35,31,32);fill-rule:nonzero;"/>
        </g>
        <g transform="matrix(4.16667,0,0,4.16667,0,0)">
            <path d="M2778.17,404.63C2778.76,401.078 2778.76,396.933 2778.76,394.567C2778.76,358.458 2756.27,337.148 2723.71,337.148C2681.09,337.148 2663.92,366.745 2661.56,404.63L2778.17,404.63ZM2800.07,492.83L2828.49,531.901C2809.54,552.618 2772.25,570.969 2729.63,570.969C2639.06,570.969 2601.18,511.774 2601.18,429.493C2601.18,351.947 2641.43,288.606 2723.71,288.606C2803.03,288.606 2834.41,346.025 2834.41,404.037C2834.41,417.653 2833.22,437.187 2830.26,448.434L2661.56,448.434C2662.74,491.647 2684.05,519.468 2729.63,519.468C2752.72,519.468 2779.35,511.181 2800.07,492.83Z" style="fill:rgb(35,31,32);fill-rule:nonzero;"/>
        </g>
        <g transform="matrix(4.16667,0,0,4.16667,0,0)">
            <path d="M2452.6,515.916C2477.46,515.916 2498.77,504.67 2510.61,489.871L2510.61,368.522C2502.32,357.865 2483.38,343.659 2452.6,343.659C2401.1,343.659 2385.71,379.175 2385.71,428.9C2385.71,477.441 2400.51,515.916 2452.6,515.916ZM2570.4,294.528L2570.4,582.809C2570.4,642.004 2526,685.807 2452.6,685.807C2380.38,685.807 2343.68,647.922 2343.68,600.567L2396.36,600.567C2396.36,618.918 2415.9,637.858 2452.6,637.858C2490.48,637.858 2510.61,617.142 2510.61,585.768L2510.61,539.595C2494.63,557.946 2467.99,570.969 2440.17,570.969C2363.21,570.969 2325.92,517.692 2325.92,428.9C2325.92,340.7 2364.99,288.606 2440.17,288.606C2476.87,288.606 2499.36,302.815 2514.16,318.797L2514.16,294.528L2570.4,294.528Z" style="fill:rgb(35,31,32);fill-rule:nonzero;"/>
        </g>
    </g>
</svg>
